<svg width="18" height="14" viewBox="0 0 18 14" fill="none" xmlns="http://www.w3.org/2000/svg">
<path d="M17.6284 2.65248C17.5264 2.26986 17.3258 1.92071 17.0466 1.63994C16.7674 1.35916 16.4194 1.15659 16.0374 1.05248C13.704 0.77132 11.3545 0.644378 9.00439 0.67248C6.65461 0.64409 4.30551 0.770698 1.97239 1.05148C1.59036 1.15559 1.24235 1.35816 0.963147 1.63894C0.683948 1.91971 0.483345 2.26886 0.381393 2.65148C0.121948 4.09045 -0.00392093 5.55033 0.0053925 7.01248C-0.00418925 8.47426 0.121345 9.9338 0.380392 11.3725C0.482868 11.7522 0.684051 12.0981 0.963496 12.3749C1.24294 12.6517 1.59069 12.8496 1.97139 12.9485C4.30451 13.2293 6.65361 13.3559 9.00339 13.3275C11.3532 13.3559 13.7023 13.2293 16.0354 12.9485C16.4165 12.8499 16.7646 12.6522 17.0444 12.3753C17.3243 12.0985 17.5257 11.7525 17.6284 11.3725C17.8878 9.9335 18.0137 8.47363 18.0044 7.01148C18.0137 5.54933 17.8878 4.08945 17.6284 2.65048V2.65248ZM7.16339 9.68948V4.33748L11.8634 7.01348L7.16339 9.68948Z" fill="#225289"/>
</svg>
