<svg width="26" height="34" viewBox="0 0 26 34" fill="none" xmlns="http://www.w3.org/2000/svg">
<path d="M25.6769 7.30946L13.4359 0.787458C13.347 0.739321 13.2475 0.714111 13.1464 0.714111C13.0453 0.714111 12.9458 0.739321 12.8569 0.787458L0.95394 7.31546C0.858096 7.36806 0.778178 7.44549 0.722577 7.53963C0.666975 7.63376 0.63774 7.74113 0.63794 7.85046V16.3705C0.641685 19.7978 1.64369 23.1499 3.52151 26.0171C5.39933 28.8842 8.07165 31.1423 11.2119 32.5155L12.8639 33.2355C12.9405 33.2687 13.023 33.2858 13.1064 33.2858C13.1899 33.2858 13.2724 33.2687 13.3489 33.2355L15.2109 32.4355C18.4085 31.0925 21.1383 28.835 23.0577 25.9464C24.9771 23.0578 26.0007 19.6666 25.9999 16.1985V7.84746C25.9999 7.73693 25.9698 7.6285 25.9129 7.53374C25.856 7.43898 25.7745 7.36146 25.6769 7.30946ZM24.7769 16.1985C24.7767 19.4263 23.8234 22.5823 22.0366 25.2705C20.2498 27.9587 17.709 30.0595 14.7329 31.3095L13.1119 32.0095L11.7029 31.3945C8.77918 30.1171 6.29087 28.0157 4.54212 25.347C2.79338 22.6784 1.85995 19.5581 1.85594 16.3675V8.20846L13.1529 2.01546L24.7829 8.21546L24.7769 16.1985Z" fill="#225289"/>
<path d="M8.65704 15.9734C8.55214 15.8504 8.40271 15.7742 8.24162 15.7615C8.08052 15.7487 7.92096 15.8005 7.79804 15.9054C7.67511 16.0103 7.59888 16.1597 7.58613 16.3208C7.57338 16.4819 7.62514 16.6414 7.73004 16.7644L10.949 20.5344C11.0523 20.6554 11.1989 20.7313 11.3573 20.7457C11.5158 20.7601 11.6737 20.7119 11.797 20.6114L19.297 14.5114C19.4224 14.4094 19.502 14.2618 19.5185 14.1011C19.535 13.9404 19.487 13.7797 19.385 13.6544C19.2831 13.5291 19.1355 13.4494 18.9748 13.4329C18.814 13.4164 18.6534 13.4644 18.528 13.5664L11.489 19.2904L8.65704 15.9734Z" fill="#225289"/>
</svg>
