<svg width="35" height="28" viewBox="0 0 35 28" fill="none" xmlns="http://www.w3.org/2000/svg">
<path d="M18.5781 19.4295H27.721C27.7972 19.434 27.8735 19.4223 27.9448 19.3952C28.0161 19.3681 28.0809 19.3262 28.1348 19.2723C28.1888 19.2183 28.2307 19.1536 28.2578 19.0822C28.2849 19.0109 28.2966 18.9347 28.2921 18.8585V13.7155C28.2966 13.6393 28.2849 13.5631 28.2578 13.4918C28.2307 13.4204 28.1888 13.3557 28.1348 13.3017C28.0809 13.2478 28.0161 13.2059 27.9448 13.1788C27.8735 13.1517 27.7972 13.14 27.721 13.1445H18.5781C18.5019 13.14 18.4256 13.1517 18.3543 13.1788C18.283 13.2059 18.2182 13.2478 18.1643 13.3017C18.1103 13.3557 18.0684 13.4204 18.0413 13.4918C18.0142 13.5631 18.0025 13.6393 18.007 13.7155V18.8625C18.0031 18.9383 18.0152 19.0142 18.0426 19.085C18.07 19.1558 18.1119 19.2201 18.1658 19.2736C18.2197 19.3271 18.2843 19.3687 18.3553 19.3955C18.4263 19.4224 18.5023 19.434 18.5781 19.4295ZM19.149 14.2865H27.149V18.2865H19.149V14.2865Z" fill="#225289"/>
<path d="M3.14987 12.0004H7.72087C7.87244 12.0004 8.0178 11.9402 8.12498 11.833C8.23216 11.7258 8.29237 11.5805 8.29237 11.4289C8.29237 11.2774 8.23216 11.132 8.12498 11.0248C8.0178 10.9176 7.87244 10.8574 7.72087 10.8574H3.14987C2.9983 10.8574 2.85294 10.9176 2.74576 11.0248C2.63858 11.132 2.57837 11.2774 2.57837 11.4289C2.57837 11.5805 2.63858 11.7258 2.74576 11.833C2.85294 11.9402 2.9983 12.0004 3.14987 12.0004Z" fill="#225289"/>
<path d="M10.007 12.0004H14.578C14.7296 12.0004 14.875 11.9402 14.9822 11.833C15.0893 11.7258 15.1496 11.5805 15.1496 11.4289C15.1496 11.2774 15.0893 11.132 14.9822 11.0248C14.875 10.9176 14.7296 10.8574 14.578 10.8574H10.007C9.85548 10.8574 9.71011 10.9176 9.60294 11.0248C9.49576 11.132 9.43555 11.2774 9.43555 11.4289C9.43555 11.5805 9.49576 11.7258 9.60294 11.833C9.71011 11.9402 9.85548 12.0004 10.007 12.0004Z" fill="#225289"/>
<path d="M3.14987 14.2865H10.5789C10.7304 14.2865 10.8758 14.2263 10.983 14.1192C11.0902 14.012 11.1504 13.8666 11.1504 13.715C11.1504 13.5635 11.0902 13.4181 10.983 13.3109C10.8758 13.2038 10.7304 13.1436 10.5789 13.1436H3.14987C2.9983 13.1436 2.85294 13.2038 2.74576 13.3109C2.63858 13.4181 2.57837 13.5635 2.57837 13.715C2.57837 13.8666 2.63858 14.012 2.74576 14.1192C2.85294 14.2263 2.9983 14.2865 3.14987 14.2865Z" fill="#225289"/>
<path d="M14.5789 13.1436H12.865C12.7134 13.1436 12.568 13.2038 12.4608 13.3109C12.3537 13.4181 12.2935 13.5635 12.2935 13.7151C12.2935 13.8666 12.3537 14.012 12.4608 14.1192C12.568 14.2263 12.7134 14.2866 12.865 14.2866H14.5789C14.7305 14.2866 14.8759 14.2263 14.9831 14.1192C15.0902 14.012 15.1505 13.8666 15.1505 13.7151C15.1505 13.5635 15.0902 13.4181 14.9831 13.3109C14.8759 13.2038 14.7305 13.1436 14.5789 13.1436Z" fill="#225289"/>
<path d="M34.064 6.05749C33.883 5.81261 33.6516 5.6094 33.3855 5.46156C33.1193 5.31372 32.8245 5.22469 32.521 5.20049L31.15 5.03449V2.28649C31.1484 1.68069 30.907 1.10016 30.4787 0.671791C30.0503 0.243426 29.4698 0.00207207 28.864 0.000488281H2.57897C1.97317 0.00207207 1.39264 0.243426 0.964272 0.671791C0.535907 1.10016 0.294553 1.68069 0.292969 2.28649V20.5715C0.294452 21.064 0.454433 21.543 0.749245 21.9376C1.04406 22.3322 1.45805 22.6214 1.92997 22.7625C1.91697 23.3258 2.11828 23.8731 2.49324 24.2937C2.8682 24.7143 3.38884 24.977 3.94997 25.0285L30.35 27.9995H30.579C31.1301 28.0053 31.6649 27.8119 32.0849 27.455C32.5049 27.098 32.7819 26.6014 32.865 26.0565L34.579 7.71349C34.6086 7.41703 34.5783 7.11764 34.4898 6.83315C34.4013 6.54865 34.2565 6.28486 34.064 6.05749ZM1.43597 4.00049H30.007V7.42949H1.43597V4.00049ZM2.57897 1.14349H28.864C29.1669 1.14428 29.4571 1.26496 29.6713 1.47914C29.8855 1.69332 30.0062 1.98359 30.007 2.28649V2.85749H1.43597V2.28649C1.43676 1.98359 1.55744 1.69332 1.77162 1.47914C1.9858 1.26496 2.27607 1.14428 2.57897 1.14349ZM1.43597 20.5715V8.57149H30.007V20.5715C30.0062 20.8744 29.8855 21.1647 29.6713 21.3788C29.4571 21.593 29.1669 21.7137 28.864 21.7145H2.57897C2.27607 21.7137 1.9858 21.593 1.77162 21.3788C1.55744 21.1647 1.43676 20.8744 1.43597 20.5715ZM33.436 7.48549L31.722 25.8295C31.6906 26.1322 31.5409 26.4102 31.3055 26.6029C31.07 26.7957 30.7679 26.8876 30.465 26.8585L4.12197 23.8865C3.85845 23.859 3.61238 23.7418 3.42503 23.5544C3.23768 23.3671 3.12044 23.121 3.09297 22.8575H28.864C29.4698 22.8559 30.0503 22.6146 30.4787 22.1862C30.907 21.7578 31.1484 21.1773 31.15 20.5715V6.11449L32.464 6.22849C32.6098 6.2354 32.7523 6.27492 32.8809 6.34414C33.0095 6.41336 33.1209 6.51052 33.207 6.62849C33.2998 6.74937 33.3678 6.8874 33.4071 7.03464C33.4464 7.18188 33.4562 7.33444 33.436 7.48549Z" fill="#225289"/>
</svg>
