<svg xmlns="http://www.w3.org/2000/svg" xmlns:xlink="http://www.w3.org/1999/xlink" width="62" height="13" viewBox="0 0 95.046 19.229"><defs><style>.a{fill:url(#a);}.b{fill:url(#b);}.c{fill:url(#c);}.d{fill:url(#d);}.e{fill:#00c0f3;}.f{fill:#ffd400;}.g{fill:#00416b;}</style><linearGradient id="a" x1="-5.604" y1="7.454" x2="-5.593" y2="7.454" gradientUnits="objectBoundingBox"><stop offset="0" stop-color="#d09910"/><stop offset="1" stop-color="#a65718"/></linearGradient><linearGradient id="b" x1="-2.945" y1="4.221" x2="-2.939" y2="4.221" gradientUnits="objectBoundingBox"><stop offset="0" stop-color="#fd0"/><stop offset="0.9" stop-color="#d09910"/><stop offset="1" stop-color="#fd0"/></linearGradient><linearGradient id="c" x1="-6.119" y1="9.325" x2="-6.108" y2="9.325" gradientUnits="objectBoundingBox"><stop offset="0" stop-color="#00416b"/><stop offset="1" stop-color="#002447"/></linearGradient><linearGradient id="d" x1="-3.709" y1="4.669" x2="-3.702" y2="4.669" gradientUnits="objectBoundingBox"><stop offset="0" stop-color="#00416b"/><stop offset="0.9" stop-color="#00b1eb"/><stop offset="1" stop-color="#0083ca"/></linearGradient></defs><g transform="translate(-0.305 -0.28)"><g transform="translate(5.962 13.127)"><path class="a" d="M63.135,142.7c-.149.185,0-.255,0,0h0a.942.942,0,0,0,1,1h8l-5-6Z" transform="translate(-62.746 -137.546)"/></g><g transform="translate(0 6.563)"><path class="b" d="M6.852,68.738a2.741,2.741,0,0,0-2,1h0l-4,5c-.1.134,0,.817,0,1h0c0,.18-.1-.136,0,0h0l4,6h0c.41.52,1.288-.014,2,0h1a.942.942,0,0,1-1-1h0c0-.255-.149.185,0,0h0l4-5,5-7Z" transform="translate(-0.5 -69.021)"/></g><g transform="translate(11.534 0)"><g transform="translate(0 0)"><path class="c" d="M120.732.781l5,6,4-5c.143-.19,0,.255,0,0h0a.942.942,0,0,0-1-1h-8Z" transform="translate(-120.915 -0.5)"/></g></g><g transform="translate(11.534 0)"><g transform="translate(0 0)"><path class="d" d="M129.732.781h-1a.942.942,0,0,1,1,1h0c0,.255.143-.19,0,0h0l-4,5-5,7h9a2.761,2.761,0,0,0,2-1h0l4-5c.105-.134,0-.818,0-1h0c0-.18.1.129,0,0h0l-4-5h0a2.976,2.976,0,0,0-2-1h0c-.013,0,.009,0,0,0Z" transform="translate(-120.915 -0.5)"/></g></g><g transform="translate(5.68 0)"><g transform="translate(5.854 0)"><path class="e" d="M129.733,1.782c.149-.19,0,.255,0,0a.942.942,0,0,0-1-1h0a.942.942,0,0,1,1,1c0,.255.143-.19,0,0l-4,5-5,7Z" transform="translate(-120.916 -0.501)"/></g><g transform="translate(0 6.563)"><path class="f" d="M60.469,80.74c-.143.185-1-.256-1,0a.945.945,0,0,0,1,1h1a.942.942,0,0,1-1-1c0-.256-.148.185,0,0l4-5,5-7Z" transform="translate(-59.797 -69.023)"/></g><g transform="translate(82.722 9.079)"><path class="g" d="M928.367,99.487c-.373-.165-.485.126-1,0a4.01,4.01,0,0,1-2-1c-.244-.379.674-.774,1-1a1.862,1.862,0,0,1,2,0h0a9.285,9.285,0,0,0,1,0c.134,0-.071.1,0,0,.005-.012,1-1,1-1h0c-.1-.075-.844.09-1,0a2.49,2.49,0,0,0-2-1h0c-3.082.073-4,2.232-4,3,0,1.167,1.1,1.48,2,2a9.591,9.591,0,0,0,2,1,2.414,2.414,0,0,1,1,1c.047.107,0-.121,0,0,.013.4-.4.813-1,1-.664.2-1.051.745-2,0-.027-.022.036-.986,0-1s-.946,0-1,0c-.135,0,.076.9,0,1-.015.02-1,1-1,1a3.59,3.59,0,0,1,1,0,4.906,4.906,0,0,0,3,1h0c2.962-.01,3-1.84,3-3a3.512,3.512,0,0,0-2-3" transform="translate(-923.418 -95.285)"/></g><g transform="translate(51.415 9.244)"><path class="g" d="M599.834,97.05c-.508.007-.572-.126-1,0a4.2,4.2,0,0,0-2,1,1.966,1.966,0,0,0,0,2v7h2c.122,0,0,.122,0,0v-7c0-.138-.267-.754,0-1,.213-.192.719.041,1,0a5.017,5.017,0,0,1,1,0h0c.14,0-.069.111,0,0l1-2a6.715,6.715,0,0,0-2,0" transform="translate(-596.578 -97.014)"/></g><g transform="translate(45.712 9.244)"><path class="g" d="M540.994,97.05a11.209,11.209,0,0,0-2,0c-.688.214-.6.478-1,1a7.324,7.324,0,0,0-1,2v7h2c.12,0,0,.122,0,0v-7c0-.138-.271-.754,0-1,.212-.192.718.041,1,0a5.017,5.017,0,0,1,1,0h0c.142,0-.068.111,0,0l1-2c-.552-.192-.378-.008-1,0" transform="translate(-537.035 -97.014)"/></g><g transform="translate(23.005 6.575)"><path class="g" d="M309.633,79.853c-.073-.095-.868,0-1,0-.075,0,.056-.036,0,0h0c-.656.4-1.176,0-2,0a3.758,3.758,0,0,1-4-4c0-2.419,1.581-5,4-5,.824,0,1.344.612,2,1,.061.044-.077,0,0,0a3.839,3.839,0,0,0,1,0l1-1c-1.086-.8-2.55-2-4-2a7.349,7.349,0,0,0-7,7c0,3.617,3.386,6,7,6a6.742,6.742,0,0,0,4-1Z" transform="translate(-299.966 -69.147)"/></g><g transform="translate(56.45 9.094)"><path class="g" d="M654.358,97.631a2.978,2.978,0,0,1,3,2h-6a2.983,2.983,0,0,1,3-2m0-2a5,5,0,0,0,0,10h0a7.652,7.652,0,0,0,4-1h0s-.989-.983-1-1c-.072-.094-.874,0-1,0-.073,0,.056-.033,0,0a8.727,8.727,0,0,1-2,0,3.064,3.064,0,0,1-3-2h8c.125,0,0,.122,0,0v-1c0-.078,0,.079,0,0a4.809,4.809,0,0,0-5-5" transform="translate(-649.137 -95.445)"/></g><g transform="translate(68.273 9.437)"><path class="g" d="M772.968,108.867c-.123,0,0,.12,0,0v-10c0-.117-.119,0,0,0h2c.124,0,0-.125,0,0v10c0,.122.124,0,0,0Z" transform="translate(-772.569 -99.023)"/></g><g transform="translate(33.788 8.977)"><path class="g" d="M417.432,96.525a3,3,0,0,0,0,6c1.765,0,4-1.235,4-3s-2.235-3-4-3m0,8a5,5,0,0,1,0-10c2.957,0,6,2.047,6,5s-3.043,5-6,5" transform="translate(-412.548 -94.222)"/></g><g transform="translate(71.498 9.075)"><path class="g" d="M811.414,97.446a3,3,0,1,0,3,3,2.9,2.9,0,0,0-3-3m0,8a5,5,0,1,1,5-5,4.807,4.807,0,0,1-5,5" transform="translate(-806.241 -95.24)"/></g></g></g></svg>