<svg xmlns="http://www.w3.org/2000/svg" width="60" height="13" viewBox="0 0 87.086 19.1"><defs><style>.a{fill:#004184;}.b{fill:#fede04;}</style></defs><g transform="translate(0.247 -0.231)"><path class="a" d="M845.7,1154.944q41.485,0,83,0c.048,0,.02-.111,0,0-.026.015,0-.023,0,0-.293,1.58.293,3.42,0,5-.445,2.4-1.556,4.6-2,7-.461,2.488-.543,4.511-1,7-.021.113.122,0,0,0-27.759,0-56.24,0-84,0h0c0-.017,0,.007,0,0,.434-2.058,1.566-3.942,2-6,.444-2.106.556-3.894,1-6s.557-3.889,1-6C845.758,1155.669,845.673,1155.224,845.7,1154.944Zm30,16c.022.024-.023,0,0,0,1.171,0,2.829,0,4,0,.079,0-.032.057,0,0,.493-.862,1.508-2.136,2-3,.046-.081-.1,0,0,0,1.595,0,3.405.005,5,0,.124,0-.011-.106,0,0,.091.849-.092,2.151,0,3,.008.079-.079,0,0,0,1.121,0,1.879,0,3,0,.076,0,1.012.081,1,0-.066-.451-.937-.549-1-1-.2-1.4.195-3.6,0-5-.178-1.28-.822-2.72-1-4-.189-1.363.187-2.637,0-4-.013-.09.1,0,0,0-1.288,0-2.712,0-4,0a4.758,4.758,0,0,0-1,0c-2.7,4.494-5.3,9.507-8,14C875.68,1170.978,875.7,1170.9,875.7,1170.944Zm-6-14h0c-.976,0-2.024,0-3,0-.091,0,.024-.1,0,0-.3,1.3-.7,2.7-1,4-.738,3.19-1.259,6.811-2,10-.025.106-.091,0,0,0,.373,0,.626,0,1,0,.731,0,1.269,0,2,0,.1,0-.017.095,0,0,.029-.163.963-.839,1-1,.291-1.254-.287-1.745,0-3a7.411,7.411,0,0,1,1-1c.37,0,.63,0,1,0a8.65,8.65,0,0,0,2,0,9.437,9.437,0,0,0,3-1,5.868,5.868,0,0,0,2-2,5.02,5.02,0,0,0,1-3,3.348,3.348,0,0,0-1-2c-.464-.443-1.391.175-2,0a14.272,14.272,0,0,0-3-1C870.978,1156.935,870.423,1156.944,869.7,1156.944Zm34,10c-.218-.029.178-.151,0,0-.319.271-.641.783-1,1a6.968,6.968,0,0,1-4,1c-.511-.046-.575-.7-1-1a3.242,3.242,0,0,1-1-2c-.2-1.3-.5-1.775,0-3a7.857,7.857,0,0,1,2-3c1.287-.895,2.555-.492,4,0a4.6,4.6,0,0,1,2,1c.149.155-.211.022,0,0a5.02,5.02,0,0,0,1,0c.251-1.038-.256-1.963,0-3,.02-.08.073.039,0,0-.238-.126.249.1,0,0a11.857,11.857,0,0,0-3-1,8.679,8.679,0,0,0-3,0,10.365,10.365,0,0,0-7,6c-.331.866.053,1.077,0,2a6.248,6.248,0,0,0,0,2,5.814,5.814,0,0,0,3,4c.618.244,1.34-.052,2,0a7.849,7.849,0,0,0,3,0c.8-.214,2.233-.69,3-1,.067-.027-.014.055,0,0,.131-.535-.131-1.465,0-2C903.827,1167.426,903.574,1167.463,903.7,1166.944Z" transform="translate(-841.946 -1154.663)"/><path class="b" d="M928.349,1174.863c0-.044-.02.034,0,0,2.7-4.493,5.3-9.506,8-14a4.734,4.734,0,0,1,1,0c1.287,0,2.712,0,4,0,.1,0-.013-.09,0,0,.187,1.363-.189,2.637,0,4,.178,1.28.822,2.72,1,4,.195,1.4-.2,3.6,0,5,.063.451.934.549,1,1,.012.081-.924,0-1,0-1.121,0-1.879,0-3,0-.079,0,.008.078,0,0-.092-.849.091-2.151,0-3-.012-.106.124,0,0,0-1.595.005-3.405,0-5,0-.1,0,.046-.081,0,0-.492.864-1.507,2.137-2,3-.032.057.079,0,0,0-1.171,0-2.829,0-4,0C928.326,1174.863,928.371,1174.887,928.349,1174.863Zm10-10h0c-.931,1.621-2.064,3.371-3,5,.032,0-.016,0,0,0,1.071,0,1.929,0,3,0,.1,0,.008.068,0,0-.053-.465.052-1.534,0-2-.1-.856.1-1.143,0-2C938.319,1165.6,938.379,1165.13,938.349,1164.863Z" transform="translate(-894.594 -1158.582)"/><path class="b" d="M903.169,1160.864c.723,0,1.278-.009,2,0a14.28,14.28,0,0,1,3,1c.609.174,1.536-.443,2,0a3.349,3.349,0,0,1,1,2,5.021,5.021,0,0,1-1,3,5.87,5.87,0,0,1-2,2,9.439,9.439,0,0,1-3,1,8.643,8.643,0,0,1-2,0c-.37,0-.63,0-1,0a7.4,7.4,0,0,0-1,1c-.287,1.255.291,1.746,0,3-.037.161-.971.837-1,1-.017.095.1,0,0,0-.731,0-1.269,0-2,0-.374,0-.626,0-1,0-.091,0-.025.106,0,0,.742-3.189,1.262-6.81,2-10,.3-1.3.7-2.7,1-4,.024-.1-.091,0,0,0,.976,0,2.024,0,3,0Zm0,7h0a8.542,8.542,0,0,0,2,0,3.411,3.411,0,0,0,2-3c.022-.7-.349-.752-1-1a5.069,5.069,0,0,0-1,0c-.654-.063-1.345.015-2,0-.071,0,.014-.061,0,0-.3,1.3-.7,2.7-1,4-.021.089-.084,0,0,0C902.447,1167.86,902.891,1167.864,903.169,1167.864Z" transform="translate(-875.414 -1158.583)"/><path class="b" d="M981.944,1170.448c-.126.519.127.482,0,1-.13.535.131,1.465,0,2-.014.055.067-.027,0,0-.767.31-2.2.786-3,1a7.852,7.852,0,0,1-3,0c-.66-.052-1.382.244-2,0a5.814,5.814,0,0,1-3-4,6.253,6.253,0,0,1,0-2c.053-.923-.331-1.134,0-2a10.365,10.365,0,0,1,7-6,8.688,8.688,0,0,1,3,0,11.857,11.857,0,0,1,3,1c.249.1-.238-.126,0,0,.073.038.02-.08,0,0-.256,1.037.251,1.962,0,3a5.029,5.029,0,0,1-1,0c-.211.022.149.155,0,0a4.6,4.6,0,0,0-2-1c-1.445-.492-2.713-.895-4,0a7.856,7.856,0,0,0-2,3c-.5,1.225-.2,1.7,0,3a3.242,3.242,0,0,0,1,2c.425.3.489.954,1,1a6.967,6.967,0,0,0,4-1c.359-.217.681-.729,1-1C982.123,1170.3,981.727,1170.419,981.944,1170.448Z" transform="translate(-920.19 -1158.167)"/><path class="a" d="M948.654,1170.367c.03.267-.03.733,0,1,.1.857-.1,1.144,0,2,.052.465-.053,1.535,0,2,.008.068.1,0,0,0-1.071,0-1.929,0-3,0-.016,0,.032,0,0,0,.936-1.63,2.069-3.379,3-5Z" transform="translate(-904.9 -1164.086)"/><path class="a" d="M911.172,1171.813c-.278,0-.722,0-1,0-.084,0-.021.089,0,0,.3-1.3.7-2.7,1-4,.014-.061-.071,0,0,0,.655.015,1.346-.063,2,0a5.05,5.05,0,0,1,1,0c.651.248,1.022.305,1,1a3.411,3.411,0,0,1-2,3,8.549,8.549,0,0,1-2,0Z" transform="translate(-883.418 -1162.532)"/></g></svg>