<svg width="18" height="18" viewBox="0 0 18 18" fill="none" xmlns="http://www.w3.org/2000/svg">
<path d="M9.005 4.38551C8.09224 4.38551 7.19998 4.65618 6.44104 5.16328C5.68211 5.67038 5.09059 6.39115 4.7413 7.23443C4.392 8.07771 4.3006 9.00563 4.47868 9.90085C4.65675 10.7961 5.09628 11.6184 5.7417 12.2638C6.38712 12.9092 7.20944 13.3488 8.10466 13.5268C8.99988 13.7049 9.9278 13.6135 10.7711 13.2642C11.6144 12.9149 12.3351 12.3234 12.8422 11.5645C13.3493 10.8055 13.62 9.91327 13.62 9.00051C13.6209 8.3942 13.5022 7.79367 13.2706 7.23334C13.039 6.673 12.6991 6.16388 12.2704 5.73516C11.8416 5.30643 11.3325 4.96653 10.7722 4.73493C10.2118 4.50333 9.61131 4.38459 9.005 4.38551ZM9.005 12.0005C8.41166 12.0005 7.83164 11.8246 7.33829 11.4949C6.84494 11.1653 6.46042 10.6967 6.23336 10.1486C6.0063 9.60038 5.94689 8.99718 6.06264 8.41524C6.1784 7.8333 6.46412 7.29875 6.88368 6.87919C7.30324 6.45963 7.83779 6.17391 8.41973 6.05816C9.00167 5.9424 9.60487 6.00181 10.1531 6.22887C10.7012 6.45594 11.1698 6.84045 11.4994 7.3338C11.8291 7.82715 12.005 8.40717 12.005 9.00051C12.0034 9.79567 11.6868 10.5578 11.1246 11.1201C10.5623 11.6823 9.80016 11.9989 9.005 12.0005ZM14.885 4.20051C14.8842 4.41298 14.8205 4.62046 14.702 4.79679C14.5835 4.97313 14.4154 5.11042 14.2189 5.19136C14.0225 5.27231 13.8065 5.29328 13.5981 5.25163C13.3898 5.20999 13.1984 5.10759 13.0482 4.95735C12.8979 4.80711 12.7955 4.61575 12.7539 4.4074C12.7122 4.19905 12.7332 3.98304 12.8141 3.78659C12.8951 3.59014 13.0324 3.42205 13.2087 3.30352C13.3851 3.18498 13.5925 3.1213 13.805 3.12051C13.9466 3.11985 14.087 3.14721 14.218 3.20101C14.349 3.25482 14.4681 3.334 14.5684 3.43401C14.6687 3.53402 14.7482 3.65287 14.8023 3.78374C14.8565 3.9146 14.8843 4.05488 14.884 4.19651L14.885 4.20051ZM17.942 5.29251C17.9718 3.89297 17.4495 2.53796 16.488 1.52051C15.4689 0.560587 14.1148 0.0373142 12.715 0.0625117C11.229 -0.0214883 6.775 -0.0214883 5.288 0.0625117C3.88953 0.0345654 2.53565 0.555011 1.516 1.51251C0.556486 2.53111 0.0347913 3.88543 0.063 5.28451C-0.021 6.77051 -0.021 11.2245 0.063 12.7115C0.0332281 14.1111 0.555547 15.4661 1.517 16.4835C2.53688 17.4411 3.89025 17.9628 5.289 17.9375C6.775 18.0215 11.229 18.0215 12.716 17.9375C14.1155 17.9673 15.4705 17.445 16.488 16.4835C17.4462 15.464 17.968 14.1104 17.942 12.7115C18.026 11.2255 18.026 6.77551 17.942 5.28851V5.29251ZM16.022 14.3095C15.8682 14.6967 15.6364 15.0482 15.3411 15.342C15.0457 15.6358 14.693 15.8658 14.305 16.0175C13.12 16.4875 10.305 16.3785 8.999 16.3785C7.693 16.3785 4.874 16.4785 3.693 16.0175C3.3058 15.8647 2.95413 15.634 2.6598 15.3397C2.36547 15.0454 2.13477 14.6937 1.982 14.3065C1.512 13.1215 1.621 10.3065 1.621 9.00051C1.621 7.69451 1.521 4.87551 1.982 3.69451C2.13533 3.30684 2.3668 2.95487 2.66202 2.66051C2.95724 2.36615 3.30988 2.13571 3.698 1.98351C4.883 1.51351 7.698 1.62251 9.004 1.62251C10.31 1.62251 13.129 1.52251 14.31 1.98351C14.6972 2.13628 15.0489 2.36699 15.3432 2.66131C15.6375 2.95564 15.8682 3.30732 16.021 3.69451C16.491 4.87951 16.382 7.69451 16.382 9.00051C16.382 10.3065 16.491 13.1255 16.021 14.3065L16.022 14.3095Z" fill="#225289"/>
</svg>
