<svg width="20" height="20" viewBox="0 0 20 20" fill="none" xmlns="http://www.w3.org/2000/svg">
<path d="M18.0048 18V12.14C18.0048 9.26 17.3848 7.06 14.0248 7.06C12.4048 7.06 11.3248 7.94 10.8848 8.78H10.8448V7.32H7.66479V18H10.9848V12.7C10.9848 11.3 11.2448 9.96 12.9648 9.96C14.6648 9.96 14.6848 11.54 14.6848 12.78V17.98H18.0048V18Z" fill="#225289"/>
<path d="M2.26489 7.32001H5.58489V18H2.26489V7.32001Z" fill="#225289"/>
<path d="M3.92488 2C2.86488 2 2.00488 2.86 2.00488 3.92C2.00488 4.98 2.86488 5.86 3.92488 5.86C4.98488 5.86 5.84488 4.98 5.84488 3.92C5.84488 2.86 4.98488 2 3.92488 2Z" fill="#225289"/>
</svg>
