<svg id="Grupo_8" data-name="Grupo 8" xmlns="http://www.w3.org/2000/svg" xmlns:xlink="http://www.w3.org/1999/xlink" width="131.209" height="39.419" viewBox="0 0 131.209 39.419">
  <defs>
    <clipPath id="clip-path">
      <path id="Caminho_21" data-name="Caminho 21" d="M605.79,191.2c-6.519,0-12.164,2.678-14.451,3.515v3.8c0,10.549.04,17.834,6.176,23.968a75.848,75.848,0,0,0,8.114,6.236,74.7,74.7,0,0,0,8.163-6.236c6.148-6.148,6.128-12.6,6.128-22.559v-5.25C617.06,193.787,611.929,191.2,605.79,191.2Z" transform="translate(-591.34 -191.2)" fill="none"/>
    </clipPath>
    <linearGradient id="linear-gradient" x1="0.5" y1="-0.157" x2="0.5" y2="0.669" gradientUnits="objectBoundingBox">
      <stop offset="0" stop-color="#263238" stop-opacity="0.349"/>
      <stop offset="0.42" stop-color="#263238" stop-opacity="0.149"/>
      <stop offset="0.89" stop-color="#263238" stop-opacity="0.02"/>
      <stop offset="1" stop-color="#263238" stop-opacity="0"/>
    </linearGradient>
    <clipPath id="clip-path-2">
      <path id="Caminho_24" data-name="Caminho 24" d="M628.492,388.847a15.057,15.057,0,0,0,2.057,4.1,46.444,46.444,0,0,0,4.316,4.647,49.063,49.063,0,0,0,4.241-4.647,14.832,14.832,0,0,0,2.088-4.274C642.4,385.662,627.285,386.406,628.492,388.847Z" transform="translate(-628.424 -386.701)" fill="none"/>
    </clipPath>
  </defs>
  <g id="Grupo_7" data-name="Grupo 7" transform="translate(0 0)">
    <g id="Grupo_6" data-name="Grupo 6" transform="translate(0)">
      <g id="Grupo_3" data-name="Grupo 3" transform="translate(36.496 3.762)">
        <g id="Grupo_2" data-name="Grupo 2" transform="translate(0 0)">
          <g id="Google_2015_logo">
            <path id="Caminho_12" data-name="Caminho 12" d="M79.757,29.24A4.254,4.254,0,1,1,75.5,25,4.188,4.188,0,0,1,79.757,29.24Zm-1.862,0A2.4,2.4,0,1,0,75.5,31.809a2.442,2.442,0,0,0,2.391-2.569Z" transform="translate(-57.698 -20.311)" fill="#202020"/>
            <path id="Caminho_13" data-name="Caminho 13" d="M127.758,29.24A4.253,4.253,0,1,1,123.5,25,4.188,4.188,0,0,1,127.758,29.24Zm-1.862,0a2.4,2.4,0,1,0-2.392,2.569A2.442,2.442,0,0,0,125.9,29.24Z" transform="translate(-96.523 -20.311)" fill="#202020"/>
            <path id="Caminho_14" data-name="Caminho 14" d="M175.358,25.256v7.612c0,3.131-1.847,4.41-4.03,4.41a4.037,4.037,0,0,1-3.758-2.5l1.621-.675a2.342,2.342,0,0,0,2.135,1.5c1.4,0,2.263-.862,2.263-2.485v-.61h-.065a2.887,2.887,0,0,1-2.233.963,4.243,4.243,0,0,1,0-8.478,2.938,2.938,0,0,1,2.233.948h.065v-.69h1.768Zm-1.637,4a2.389,2.389,0,0,0-2.263-2.585,2.578,2.578,0,0,0,0,5.139,2.369,2.369,0,0,0,2.264-2.554Z" transform="translate(-135.329 -20.311)" fill="#202020"/>
            <path id="Caminho_15" data-name="Caminho 15" d="M217.316,3V15.426H215.5V3Z" transform="translate(-174.372 -2.516)" fill="#202020"/>
            <path id="Caminho_16" data-name="Caminho 16" d="M235.386,30.628l1.445.963A4.22,4.22,0,0,1,233.3,33.47a4.149,4.149,0,0,1-4.208-4.24,4.029,4.029,0,0,1,4-4.24,3.938,3.938,0,0,1,3.628,2.7l.193.482-5.668,2.348A2.158,2.158,0,0,0,233.3,31.8,2.42,2.42,0,0,0,235.386,30.628ZM230.938,29.1l3.788-1.573a1.641,1.641,0,0,0-1.573-.9A2.326,2.326,0,0,0,230.938,29.1Z" transform="translate(-185.365 -20.303)" fill="#202020"/>
            <path id="Caminho_17" data-name="Caminho 17" d="M7.038,8.3V6.5H13.1a5.96,5.96,0,0,1,.09,1.086,5.941,5.941,0,0,1-1.558,4.208A6.022,6.022,0,0,1,7.04,13.638,6.677,6.677,0,0,1,.36,7.054,6.676,6.676,0,0,1,7.039.47a6.273,6.273,0,0,1,4.512,1.814L10.282,3.554A4.585,4.585,0,0,0,7.038,2.269,4.723,4.723,0,0,0,2.316,7.054a4.723,4.723,0,0,0,4.722,4.785,4.406,4.406,0,0,0,3.324-1.317,3.728,3.728,0,0,0,.975-2.227Z" transform="translate(-0.36 -0.47)" fill="#202020"/>
          </g>
          <path id="Caminho_18" data-name="Caminho 18" d="M8.878-58.834a4.906,4.906,0,0,1-3.386-1.015,3.546,3.546,0,0,1-1.18-2.608H5.679a2.219,2.219,0,0,0,1,1.771,3.868,3.868,0,0,0,2.144.574,3.378,3.378,0,0,0,1.917-.489,1.525,1.525,0,0,0,.727-1.329,1.353,1.353,0,0,0-.752-1.286,10.859,10.859,0,0,0-2.589-.793,5.979,5.979,0,0,1-2.637-1.085,2.324,2.324,0,0,1-.8-1.848,2.612,2.612,0,0,1,1.041-2.133,4.3,4.3,0,0,1,2.765-.833,4.719,4.719,0,0,1,2.922.84,2.974,2.974,0,0,1,1.176,2.374H11.208Q11-68.636,8.549-68.636a3.218,3.218,0,0,0-1.833.446,1.371,1.371,0,0,0-.65,1.183A1.119,1.119,0,0,0,6.588-66a6.625,6.625,0,0,0,1.95.65,18.4,18.4,0,0,1,2.268.621,3.631,3.631,0,0,1,1.439.953,2.451,2.451,0,0,1,.6,1.735,2.859,2.859,0,0,1-1.1,2.294A4.339,4.339,0,0,1,8.878-58.834Zm10.664-2.22v-1.717H18.6q-2.995,0-2.995,1.629a1.055,1.055,0,0,0,.438.909,1.976,1.976,0,0,0,1.183.318,2.991,2.991,0,0,0,1.315-.307A2.524,2.524,0,0,0,19.543-61.054Zm0,1.242a3.819,3.819,0,0,1-2.71.979,2.856,2.856,0,0,1-1.9-.624,2.005,2.005,0,0,1-.745-1.611q0-2.717,4.682-2.717h.672A5.906,5.906,0,0,0,19.455-65a1,1,0,0,0-.489-.624,2.514,2.514,0,0,0-1.278-.248q-1.841,0-1.9,1.315H14.415q.153-2.389,3.345-2.389a3.958,3.958,0,0,1,2.323.592,2.692,2.692,0,0,1,.833,2.323v5.011H19.542Zm5.025-5.873v6.669H23.195v-6.669H22.055v-1.081h1.139v-.687q0-2.454,2.169-2.454a4.661,4.661,0,0,1,1.03.088v1.2a4.73,4.73,0,0,0-.833-.073.94.94,0,0,0-.749.281,1.5,1.5,0,0,0-.245.975v.672h1.468v1.081ZM30.4-58.834a3.651,3.651,0,0,1-2.747-1.07,4.108,4.108,0,0,1-1.038-2.984,4.2,4.2,0,0,1,1-2.976,3.424,3.424,0,0,1,2.626-1.077A3.451,3.451,0,0,1,32.9-65.883a4.22,4.22,0,0,1,.99,2.995v.329H28.052a3,3,0,0,0,.741,1.994,2.2,2.2,0,0,0,1.611.65,2.38,2.38,0,0,0,1.3-.369,1.242,1.242,0,0,0,.61-1.048h1.424a2.57,2.57,0,0,1-1.085,1.848A3.816,3.816,0,0,1,30.4-58.834Zm2.031-4.807a2.809,2.809,0,0,0-.752-1.673,2,2,0,0,0-1.432-.555,2.006,2.006,0,0,0-1.417.552,2.745,2.745,0,0,0-.753,1.676Zm15.156,1.512a2.761,2.761,0,0,1-1.023,2.308,4.734,4.734,0,0,1-2.973.8h-4.01V-69.725H43.4a4.405,4.405,0,0,1,2.688.73,2.362,2.362,0,0,1,.979,2A2.424,2.424,0,0,1,45.524-64.7a2.644,2.644,0,0,1,1.552.968A2.649,2.649,0,0,1,47.591-62.128ZM41-65.24h2.381a3.136,3.136,0,0,0,1.731-.376,1.4,1.4,0,0,0,.555-1.253,1.38,1.38,0,0,0-.54-1.187,3.283,3.283,0,0,0-1.877-.4H41Zm0,4.952h2.578q2.542,0,2.542-1.841a1.636,1.636,0,0,0-.588-1.4,3.735,3.735,0,0,0-2.137-.442H41Zm12.4-5.223a3.085,3.085,0,0,0-.84-.088,2.165,2.165,0,0,0-1.8,1.1v5.478h-1.38v-7.75h1.381v1.081a2.461,2.461,0,0,1,2.016-1.256,3.68,3.68,0,0,1,.628.058Zm4.1-1.432a3.451,3.451,0,0,1,2.648,1.059,4.221,4.221,0,0,1,.99,2.995,4.223,4.223,0,0,1-.99,2.991A3.445,3.445,0,0,1,57.5-58.834a3.436,3.436,0,0,1-2.64-1.063,4.224,4.224,0,0,1-.99-2.991,4.22,4.22,0,0,1,.99-2.995A3.443,3.443,0,0,1,57.5-66.942Zm0,7.026a1.97,1.97,0,0,0,1.6-.749,3.447,3.447,0,0,0,.614-2.224A3.46,3.46,0,0,0,59.1-65.12a1.97,1.97,0,0,0-1.6-.749,1.97,1.97,0,0,0-1.6.749,3.46,3.46,0,0,0-.614,2.232,3.447,3.447,0,0,0,.614,2.224,1.97,1.97,0,0,0,1.6.749Zm14.886-6.851-2.33,7.75H68.744l-1.68-5.7-1.673,5.7H64.077l-2.337-7.75h1.527l1.424,5.909,1.746-5.909h1.256l1.753,5.909,1.424-5.909Zm3.864,7.932q-3.177,0-3.323-2.5H74.31q.015,1.417,1.928,1.417a2.069,2.069,0,0,0,1.3-.354,1.087,1.087,0,0,0,.449-.887.759.759,0,0,0-.438-.741,11.025,11.025,0,0,0-1.808-.559,6.658,6.658,0,0,1-2-.767,1.662,1.662,0,0,1-.632-1.49,1.965,1.965,0,0,1,.785-1.6,3.252,3.252,0,0,1,2.1-.632q3.046,0,3.112,2.169H77.736q-.073-1.1-1.643-1.1a2.279,2.279,0,0,0-1.15.263.837.837,0,0,0-.457.767.7.7,0,0,0,.351.654,8.765,8.765,0,0,0,1.757.541,6.793,6.793,0,0,1,2.089.792,1.734,1.734,0,0,1,.683,1.563,2.185,2.185,0,0,1-.844,1.757,3.449,3.449,0,0,1-2.268.7Zm6.092-.182H80.965v-7.75h1.381Zm0-9.218H80.965v-1.49h1.381Zm3.411,2.454a3.046,3.046,0,0,1,2.316-1.161q2.622,0,2.622,2.856v5.069H89.313v-5.011a2.168,2.168,0,0,0-.34-1.366,1.36,1.36,0,0,0-1.114-.416,2.882,2.882,0,0,0-2.1,1.242v5.551h-1.38v-7.75h1.381Zm13.221,6.165q0,3.74-3.375,3.74a3.748,3.748,0,0,1-2.3-.635,2.03,2.03,0,0,1-.844-1.709h1.424q0,1.271,1.709,1.271a2.007,2.007,0,0,0,1.49-.53,3,3,0,0,0,.526-2.078v-.387a2.787,2.787,0,0,1-2.213,1.11,2.8,2.8,0,0,1-2.352-1.081,4.663,4.663,0,0,1-.833-2.914,4.521,4.521,0,0,1,.931-3.006,2.933,2.933,0,0,1,2.341-1.107,3.082,3.082,0,0,1,2.126.774v-.6h1.373ZM97.6-61.244v-3.681a2.736,2.736,0,0,0-2.038-.942,1.64,1.64,0,0,0-1.413.763,4,4,0,0,0-.529,2.275,3.891,3.891,0,0,0,.5,2.173,1.581,1.581,0,0,0,1.384.741,2.621,2.621,0,0,0,2.1-1.329Z" transform="translate(-4.264 87.844)" fill="#202020"/>
        </g>
      </g>
      <g id="safebrowsing-logo">
        <path id="Caminho_19" data-name="Caminho 19" d="M591.33,225.017v3.8c0,3.471,0,6.588.226,9.455.45,5.763,1.813,10.4,5.931,14.512a75.41,75.41,0,0,0,8.134,6.236v-34C599.618,225.017,593.616,224.179,591.33,225.017Z" transform="translate(-591.33 -219.598)" fill="#66bb6a"/>
        <path id="Caminho_20" data-name="Caminho 20" d="M655.62,227.973c-14.237-.026-8.288,0-14.29,0v34.045a74.7,74.7,0,0,0,8.163-6.236c6.148-6.148,6.128-12.6,6.128-22.559Z" transform="translate(-627.04 -222.603)" fill="#388e3c"/>
        <g id="Grupo_4" data-name="Grupo 4" transform="translate(0.003 1.901)" clip-path="url(#clip-path)">
          <rect id="Retângulo_1" data-name="Retângulo 1" width="30.924" height="2.544" transform="translate(-1.103 3.513)" fill="url(#linear-gradient)"/>
        </g>
        <g id="Grupo_5" data-name="Grupo 5" transform="translate(7.869 22.981)" clip-path="url(#clip-path-2)">
          <path id="Caminho_26" data-name="Caminho 26" d="M4.647,0A4.647,4.647,0,0,1,9.294,4.647C9.294,7.214,0,7.214,0,4.647A4.647,4.647,0,0,1,4.647,0Z" transform="translate(1.903 6.867)" fill="#fafafa"/>
          <path id="Caminho_22" data-name="Caminho 22" d="M613.89,285.6a7.971,7.971,0,0,1,13.088-6.113C628.713,280.931,613.89,290,613.89,285.6Zm7.971-6.411a6.411,6.411,0,0,0-6.411,6.411c0,3.54,12.821,3.54,12.821,0A6.419,6.419,0,0,0,621.861,279.189Z" transform="translate(-615.311 -274.006)" fill="#fafafa"/>
          <path id="Caminho_23" data-name="Caminho 23" d="M601.95,277.074a11.384,11.384,0,1,1,22.767,0C624.711,283.358,601.95,283.361,601.95,277.074Zm11.384-9.746a9.746,9.746,0,0,0-9.746,9.746c0,5.383,19.492,5.383,19.492,0a9.757,9.757,0,0,0-9.746-9.743Z" transform="translate(-606.783 -265.48)" fill="#fafafa"/>
        </g>
        <path id="Caminho_25" data-name="Caminho 25" d="M619.918,189.32v-2.915a3.105,3.105,0,0,0-2.744-2.515H593.844a2.844,2.844,0,0,0-2.5,2.515v2.915h28.581Z" transform="translate(-591.337 -183.89)" fill="#e0e0e0"/>
        <circle id="Elipse_6" data-name="Elipse 6" cx="0.84" cy="0.84" r="0.84" transform="translate(2.687 2.027)" fill="#fff"/>
        <circle id="Elipse_7" data-name="Elipse 7" cx="0.84" cy="0.84" r="0.84" transform="translate(5.762 2.027)" fill="#fff"/>
      </g>
    </g>
  </g>
  <circle id="Elipse_8" data-name="Elipse 8" cx="4.71" cy="4.71" r="4.71" transform="translate(9.486 11.07)" fill="#fafafa"/>
</svg>
