<svg id="Page-1" xmlns="http://www.w3.org/2000/svg" width="56.942" height="20.476" viewBox="0 0 56.942 20.476">
  <g id="Artboard" transform="translate(0 0)">
    <g id="vtex-logo" transform="translate(0)">
      <path id="Shape" d="M192.568,33.972h-2.041V40.96a.241.241,0,0,1-.239.239h-1.572a.241.241,0,0,1-.239-.239V33.972h-2.056a.23.23,0,0,1-.239-.228V32.507a.23.23,0,0,1,.239-.228h6.145a.241.241,0,0,1,.252.228v1.238A.241.241,0,0,1,192.568,33.972Z" transform="translate(-151.411 -26.304)" fill="#ff1265"/>
      <path id="path9" d="M232.108,40.684a15.719,15.719,0,0,1-2.43.157c-1.55,0-2.918-.4-2.918-2.582V34.272c0-2.185,1.381-2.569,2.929-2.569a15.515,15.515,0,0,1,2.411.155c.168.024.239.084.239.239V33.22a.241.241,0,0,1-.239.239h-2.524c-.561,0-.768.187-.768.817v1.092h3.2a.241.241,0,0,1,.239.239v1.14a.241.241,0,0,1-.239.239h-3.2V38.26c0,.624.2.817.768.817h2.531a.241.241,0,0,1,.239.239v1.122c0,.15-.071.222-.239.247Z" transform="translate(-184.405 -25.836)" fill="#ff1265"/>
      <path id="path11" d="M270.527,41.19h-1.909a.316.316,0,0,1-.312-.187l-1.656-2.617-1.5,2.569c-.084.144-.168.239-.3.239h-1.772a.159.159,0,0,1-.187-.157.222.222,0,0,1,.024-.084l2.6-4.335-2.628-4.12a.17.17,0,0,1-.024-.073.174.174,0,0,1,.187-.157h1.933c.133,0,.228.12.3.228l1.537,2.43,1.5-2.43a.389.389,0,0,1,.3-.228H270.4a.174.174,0,0,1,.187.157.17.17,0,0,1-.024.073l-2.617,4.144,2.724,4.3a.27.27,0,0,1,.036.12A.169.169,0,0,1,270.527,41.19Z" transform="translate(-213.764 -26.295)" fill="#ff1265"/>
      <path id="path13" d="M144.266,32.41a.187.187,0,0,0-.187.148l-1.744,6.453c-.024.133-.06.187-.168.187s-.144-.049-.168-.187l-1.739-6.453a.187.187,0,0,0-.187-.148h-1.716a.187.187,0,0,0-.187.228s2.129,7.4,2.152,7.478a1.811,1.811,0,0,0,1.851,1.309,1.869,1.869,0,0,0,1.851-1.309c.034-.1,2.116-7.478,2.116-7.478a.187.187,0,0,0-.187-.226Z" transform="translate(-112.372 -26.411)" fill="#ff1265"/>
      <path id="path15" d="M22.354.32H4.46A1.858,1.858,0,0,0,2.832,3.041l1.791,3.41H1.378A1.17,1.17,0,0,0,.323,8.171l5.758,10.88a1.193,1.193,0,0,0,2.109,0L9.752,16.1l1.963,3.713a1.841,1.841,0,0,0,3.255,0L23.943,2.944A1.783,1.783,0,0,0,22.354.32Zm-8,7.128-3.926,7.362a.778.778,0,0,1-1.374,0L5.184,7.519a.723.723,0,0,1,.639-1.064h7.93a.675.675,0,0,1,.606.993Z" transform="translate(-0.186 -0.32)" fill="#ff1265"/>
    </g>
  </g>
</svg>
