<svg width="161" height="30" viewBox="0 0 161 30" fill="none" xmlns="http://www.w3.org/2000/svg">
<path d="M21.7266 29.5801C21.5421 29.5581 21.3993 29.4945 21.2961 29.3912C21.1928 29.288 21.1401 29.1452 21.1401 28.9607V2.00456C21.1401 1.77394 21.1928 1.60263 21.2961 1.48622C21.3993 1.37201 21.5662 1.30172 21.7969 1.27976C24.281 0.912963 26.7431 0.607666 29.1833 0.366065C31.6213 0.124463 34.1076 0.00366211 36.6378 0.00366211C40.2047 0.00366211 43.2291 0.19914 45.7132 0.590095C48.1973 0.981051 50.2224 1.60263 51.7884 2.45263C53.3522 3.30482 54.4922 4.41399 55.206 5.78234C55.9198 7.15068 56.2756 8.81334 56.2756 10.7703C56.2756 12.7273 55.9242 14.4229 55.2236 15.7912C54.5207 17.1596 53.3896 18.271 51.8236 19.121C50.2597 19.9731 48.2347 20.5925 45.7506 20.9835C43.2665 21.3744 40.2399 21.5699 36.6729 21.5699C34.8104 21.5699 33.0555 21.5062 31.4104 21.381C29.7653 21.2558 28.1839 21.0867 26.664 20.8803V29.3693C26.664 29.5999 26.6113 29.7668 26.5081 29.87C26.4049 29.9733 26.2489 30.0128 26.0425 29.9908L21.7288 29.5757L21.7266 29.5801ZM50.4069 10.7703C50.4069 9.66554 50.1829 8.74525 49.7348 8.00947C49.2867 7.27368 48.5268 6.68066 47.4572 6.23259C46.3875 5.78453 44.9774 5.46825 43.2291 5.28376C41.4808 5.09926 39.2954 5.00702 36.6729 5.00702C36.0975 5.00702 35.4188 5.018 34.6369 5.04216C33.855 5.06632 33.0138 5.09926 32.1176 5.14539C31.2193 5.19151 30.3056 5.25521 29.3744 5.33428C28.4431 5.41554 27.5404 5.51218 26.6662 5.62859V15.9472C27.5404 16.0636 28.4431 16.1602 29.3744 16.2415C30.3056 16.3228 31.2215 16.3909 32.1176 16.448C33.0138 16.5051 33.855 16.5468 34.6369 16.5688C35.4188 16.5929 36.0975 16.6039 36.6729 16.6039C39.2734 16.6039 41.4523 16.5073 43.2138 16.3096C44.9731 16.1141 46.3897 15.7912 47.4594 15.3432C48.529 14.8951 49.2889 14.2955 49.737 13.5487C50.1851 12.802 50.4091 11.8751 50.4091 10.7703H50.4069Z" fill="#225289"/>
<path d="M62.7616 29.4758C62.6935 29.6361 62.5947 29.7569 62.4673 29.8382C62.3399 29.9195 62.173 29.959 61.9665 29.959H57.2377C56.9851 29.959 56.8116 29.9019 56.7193 29.7855C56.6271 29.6691 56.6381 29.4977 56.7545 29.2671L65.3819 8.49157C65.9112 7.24842 66.5438 6.12168 67.2795 5.10915C68.0153 4.09662 68.8324 3.24003 69.7307 2.53719C70.629 1.83654 71.5998 1.28964 72.6475 0.898689C73.6952 0.507734 74.7934 0.312256 75.9443 0.312256H78.4986C79.6495 0.312256 80.7477 0.507734 81.7954 0.898689C82.8431 1.28964 83.8205 1.83654 84.7298 2.53719C85.6391 3.24003 86.4605 4.09003 87.1963 5.09158C87.9321 6.09313 88.5537 7.22646 89.061 8.49157L97.7236 29.2671C97.8378 29.4977 97.8488 29.6691 97.7587 29.7855C97.6665 29.8997 97.4929 29.959 97.2404 29.959H92.5116C92.3051 29.959 92.1382 29.9195 92.0108 29.8382C91.8834 29.7569 91.7867 29.6361 91.7165 29.4758L89.474 24.0222H65.0041L62.7616 29.4758ZM66.9018 19.3637H87.5741L83.9501 10.5276C83.1681 8.66509 82.2874 7.32969 81.31 6.52362C80.3326 5.71755 79.2322 5.31561 78.0132 5.31561H76.4253C75.2282 5.31561 74.1366 5.71755 73.1461 6.52362C72.1555 7.32969 71.2813 8.65191 70.5236 10.4925L66.8996 19.3615L66.9018 19.3637Z" fill="#225289"/>
<path d="M103.623 29.5789C103.417 29.5569 103.261 29.4932 103.157 29.39C103.054 29.2868 103.001 29.1308 103.001 28.9244V2.00334C103.001 1.77272 103.054 1.6014 103.157 1.485C103.261 1.37079 103.428 1.3005 103.658 1.27854C106.166 0.933706 108.646 0.634998 111.095 0.380218C113.546 0.127634 116.035 0.000244141 118.567 0.000244141C122.156 0.000244141 125.198 0.189133 127.695 0.569106C130.193 0.94908 132.222 1.55967 133.786 2.39869C135.35 3.2399 136.49 4.32492 137.203 5.66031C137.917 6.99571 138.273 8.61664 138.273 10.5275C138.273 12.8513 137.733 14.7489 136.652 16.2227C135.572 17.6965 133.823 18.8232 131.407 19.6051L137.515 28.9222C137.654 29.1528 137.693 29.3307 137.636 29.4581C137.579 29.5855 137.412 29.647 137.135 29.647H131.89C131.706 29.647 131.55 29.6118 131.425 29.5437C131.297 29.4757 131.188 29.3592 131.098 29.1989L125.782 20.7099C124.748 20.8263 123.636 20.912 122.453 20.9691C121.267 21.0262 119.986 21.0547 118.605 21.0547C116.718 21.0547 114.945 20.991 113.289 20.8659C111.633 20.7407 110.045 20.5606 108.528 20.3299V29.3724C108.528 29.603 108.475 29.77 108.372 29.8732C108.268 29.9764 108.112 30.016 107.906 29.994L103.627 29.5789H103.623ZM132.44 10.5626C132.44 9.50398 132.209 8.61884 131.75 7.90501C131.289 7.19119 130.524 6.62233 129.455 6.19623C128.385 5.77013 126.971 5.46703 125.209 5.28254C123.45 5.09804 121.245 5.00579 118.6 5.00579C118.025 5.00579 117.339 5.01678 116.547 5.04094C115.754 5.0651 114.908 5.09804 114.01 5.14417C113.114 5.19029 112.198 5.25398 111.266 5.33305C110.335 5.41432 109.419 5.51096 108.523 5.62737V15.4979C109.419 15.6143 110.335 15.7109 111.266 15.7922C112.198 15.8735 113.114 15.9416 114.01 15.9987C114.908 16.0558 115.754 16.0975 116.547 16.1195C117.339 16.1436 118.025 16.1546 118.6 16.1546C121.223 16.1546 123.419 16.0624 125.191 15.8779C126.964 15.6934 128.383 15.3837 129.455 14.9466C130.524 14.5095 131.289 13.9341 131.75 13.2203C132.209 12.5064 132.44 11.6213 132.44 10.5626Z" fill="#225289"/>
<path d="M17.2745 4.82812H0V6.37438H17.2745V4.82812Z" fill="#676767"/>
<path d="M17.2745 4.82812H0V6.37438H17.2745V4.82812Z" fill="#676767"/>
<path d="M17.2745 8.17993H0V9.72618H17.2745V8.17993Z" fill="#676767"/>
<path d="M17.2745 11.5312H0V13.0775H17.2745V11.5312Z" fill="#676767"/>
<path d="M17.2745 14.8828H0V16.4291H17.2745V14.8828Z" fill="#676767"/>
<path d="M17.2745 18.2346H0V19.7809H17.2745V18.2346Z" fill="#676767"/>
<path d="M17.2745 21.5872H0V23.1334H17.2745V21.5872Z" fill="#676767"/>
<path d="M17.2745 24.9382H0V26.4845H17.2745V24.9382Z" fill="#676767"/>
<path d="M160.632 4.82812H143.358V6.37438H160.632V4.82812Z" fill="#676767"/>
<path d="M160.632 4.82812H143.358V6.37438H160.632V4.82812Z" fill="#676767"/>
<path d="M160.632 8.17993H143.358V9.72618H160.632V8.17993Z" fill="#676767"/>
<path d="M160.632 11.5312H143.358V13.0775H160.632V11.5312Z" fill="#676767"/>
<path d="M160.632 14.8828H143.358V16.4291H160.632V14.8828Z" fill="#676767"/>
<path d="M160.632 18.2346H143.358V19.7809H160.632V18.2346Z" fill="#676767"/>
<path d="M160.632 21.5872H143.358V23.1334H160.632V21.5872Z" fill="#676767"/>
<path d="M160.632 24.9382H143.358V26.4845H160.632V24.9382Z" fill="#676767"/>
</svg>
