<svg width="45" height="28" viewBox="0 0 45 28" fill="none" xmlns="http://www.w3.org/2000/svg">
<path d="M41.166 11.8702L40.02 7.28525C40.1753 7.25225 40.3146 7.1669 40.4146 7.04348C40.5145 6.92006 40.569 6.76606 40.569 6.60725V5.86825C40.5682 5.09645 40.2613 4.35649 39.7155 3.81074C39.1698 3.26499 38.4298 2.95804 37.658 2.95725H32.436V1.43225C32.4357 1.24394 32.3984 1.05751 32.3261 0.88363C32.2538 0.70975 32.1479 0.551813 32.0146 0.41884C31.8812 0.285866 31.723 0.180459 31.5489 0.108636C31.3748 0.0368138 31.1883 -1.72896e-05 31 0.000245537H4.389C4.00937 0.000774636 3.64544 0.151821 3.37701 0.420259C3.10857 0.688696 2.95753 1.05262 2.957 1.43225V14.0002C2.957 14.0913 2.97493 14.1814 3.00975 14.2655C3.04458 14.3495 3.09562 14.4259 3.15998 14.4903C3.22433 14.5546 3.30072 14.6057 3.3848 14.6405C3.46888 14.6753 3.55899 14.6932 3.65 14.6932C3.74101 14.6932 3.83112 14.6753 3.9152 14.6405C3.99928 14.6057 4.07567 14.5546 4.14003 14.4903C4.20438 14.4259 4.25542 14.3495 4.29025 14.2655C4.32507 14.1814 4.343 14.0913 4.343 14.0002V1.43225C4.343 1.42005 4.34785 1.40835 4.35647 1.39972C4.3651 1.39109 4.3768 1.38625 4.389 1.38625H31C31.0122 1.38625 31.0239 1.39109 31.0325 1.39972C31.0412 1.40835 31.046 1.42005 31.046 1.43225V14.0002C31.046 14.184 31.119 14.3603 31.249 14.4903C31.3789 14.6202 31.5552 14.6932 31.739 14.6932C31.9228 14.6932 32.0991 14.6202 32.229 14.4903C32.359 14.3603 32.432 14.184 32.432 14.0002V13.2142H40.612C41.0909 13.2151 41.5573 13.3676 41.9442 13.6498C42.3311 13.932 42.6188 14.3295 42.766 14.7852H40.614C40.4302 14.7852 40.2539 14.8583 40.124 14.9882C39.994 15.1182 39.921 15.2945 39.921 15.4782V16.9572C39.9215 17.5331 40.1505 18.0853 40.5578 18.4925C40.965 18.8997 41.5171 19.1287 42.093 19.1293H42.879V22.1782H41.066C40.769 21.3137 40.2095 20.5635 39.4655 20.0324C38.7214 19.5012 37.8301 19.2157 36.916 19.2157C36.0019 19.2157 35.1106 19.5012 34.3665 20.0324C33.6225 20.5635 33.063 21.3137 32.766 22.1782H32.432V16.9572C32.432 16.7735 32.359 16.5972 32.229 16.4672C32.0991 16.3373 31.9228 16.2642 31.739 16.2642C31.5552 16.2642 31.3789 16.3373 31.249 16.4672C31.119 16.5972 31.046 16.7735 31.046 16.9572V22.1782H16.67C16.373 21.3137 15.8135 20.5635 15.0695 20.0324C14.3254 19.5012 13.4341 19.2157 12.52 19.2157C11.6059 19.2157 10.7146 19.5012 9.97054 20.0324C9.22653 20.5635 8.66697 21.3137 8.37 22.1782H4.389C4.3768 22.1782 4.3651 22.1734 4.35647 22.1648C4.34785 22.1561 4.343 22.1444 4.343 22.1322V20.6072H7.343C7.52679 20.6072 7.70306 20.5342 7.83302 20.4043C7.96299 20.2743 8.036 20.098 8.036 19.9142C8.036 19.7305 7.96299 19.5542 7.83302 19.4242C7.70306 19.2943 7.52679 19.2212 7.343 19.2212H0.693C0.509205 19.2212 0.332938 19.2943 0.202975 19.4242C0.0730123 19.5542 0 19.7305 0 19.9142C0 20.098 0.0730123 20.2743 0.202975 20.4043C0.332938 20.5342 0.509205 20.6072 0.693 20.6072H2.957V22.1322C2.95753 22.5119 3.10857 22.8758 3.37701 23.1442C3.64544 23.4127 4.00937 23.5637 4.389 23.5642H8.133C8.133 23.5792 8.133 23.5952 8.133 23.6102C8.133 24.7744 8.59546 25.8909 9.41865 26.7141C10.2418 27.5373 11.3583 27.9998 12.5225 27.9998C13.6867 27.9998 14.8032 27.5373 15.6263 26.7141C16.4495 25.8909 16.912 24.7744 16.912 23.6102C16.912 23.5942 16.912 23.5792 16.912 23.5642H32.532C32.532 23.5792 32.532 23.5952 32.532 23.6102C32.532 24.7744 32.9945 25.8909 33.8177 26.7141C34.6408 27.5373 35.7573 27.9998 36.9215 27.9998C38.0857 27.9998 39.2022 27.5373 40.0253 26.7141C40.8485 25.8909 41.311 24.7744 41.311 23.6102C41.311 23.5942 41.311 23.5792 41.311 23.5642H43.576C43.7598 23.5642 43.9361 23.4912 44.066 23.3613C44.196 23.2313 44.269 23.055 44.269 22.8712V15.4782C44.2676 14.6055 43.954 13.762 43.3849 13.1003C42.8158 12.4386 42.0287 12.0023 41.166 11.8702ZM32.436 4.34325H37.657C38.0613 4.34378 38.4489 4.50462 38.7348 4.7905C39.0206 5.07638 39.1815 5.46396 39.182 5.86825V5.91425H32.436V4.34325ZM32.436 11.8282V7.30025H38.595L39.727 11.8282H32.436ZM12.522 26.6143C11.9287 26.6143 11.3486 26.4383 10.8553 26.1087C10.3619 25.779 9.97742 25.3105 9.75036 24.7623C9.5233 24.2141 9.46389 23.6109 9.57964 23.029C9.6954 22.447 9.98112 21.9125 10.4007 21.4929C10.8202 21.0734 11.3548 20.7876 11.9367 20.6719C12.5187 20.5561 13.1219 20.6155 13.6701 20.8426C14.2182 21.0697 14.6868 21.4542 15.0164 21.9475C15.3461 22.4409 15.522 23.0209 15.522 23.6143C15.5202 24.4093 15.2035 25.1713 14.6413 25.7335C14.0791 26.2957 13.3171 26.6124 12.522 26.6143ZM36.922 26.6143C36.3287 26.6143 35.7486 26.4383 35.2553 26.1087C34.7619 25.779 34.3774 25.3105 34.1504 24.7623C33.9233 24.2141 33.8639 23.6109 33.9796 23.029C34.0954 22.447 34.3811 21.9125 34.8007 21.4929C35.2202 21.0734 35.7548 20.7876 36.3367 20.6719C36.9187 20.5561 37.5219 20.6155 38.07 20.8426C38.6182 21.0697 39.0868 21.4542 39.4164 21.9475C39.7461 22.4409 39.922 23.0209 39.922 23.6143C39.9201 24.41 39.6029 25.1726 39.0399 25.7349C38.4768 26.2973 37.7138 26.6135 36.918 26.6143H36.922ZM42.882 17.7432H42.096C41.8875 17.7432 41.6876 17.6604 41.5402 17.513C41.3928 17.3656 41.31 17.1657 41.31 16.9572V16.1713H42.881V17.7383L42.882 17.7432Z" fill="#225289"/>
<path d="M12.5249 22.1563C12.2403 22.1562 11.9621 22.2407 11.7255 22.3988C11.4888 22.5569 11.3044 22.7816 11.1955 23.0446C11.0866 23.3075 11.0581 23.5968 11.1136 23.876C11.1691 24.1551 11.3062 24.4115 11.5074 24.6128C11.7087 24.814 11.9651 24.9511 12.2442 25.0066C12.5233 25.0621 12.8127 25.0336 13.0756 24.9247C13.3386 24.8158 13.5633 24.6314 13.7214 24.3947C13.8795 24.1581 13.9639 23.8799 13.9639 23.5952C13.9637 23.2137 13.812 22.8478 13.5422 22.578C13.2724 22.3082 12.9065 22.1565 12.5249 22.1563Z" fill="#225289"/>
<path d="M36.886 22.1563C36.6014 22.1562 36.3232 22.2407 36.0866 22.3988C35.8499 22.5569 35.6655 22.7816 35.5566 23.0446C35.4477 23.3075 35.4191 23.5968 35.4747 23.876C35.5302 24.1551 35.6672 24.4115 35.8685 24.6128C36.0697 24.814 36.3261 24.9511 36.6053 25.0066C36.8844 25.0621 37.1738 25.0336 37.4367 24.9247C37.6996 24.8158 37.9244 24.6314 38.0825 24.3947C38.2406 24.1581 38.325 23.8799 38.325 23.5952C38.3248 23.2137 38.1731 22.8478 37.9033 22.578C37.6334 22.3082 37.2676 22.1565 36.886 22.1563Z" fill="#225289"/>
<path d="M28.8061 19.2171H18.4061C18.3084 19.2066 18.2096 19.2168 18.1161 19.247C18.0227 19.2772 17.9366 19.3267 17.8635 19.3924C17.7905 19.458 17.732 19.5383 17.692 19.6281C17.652 19.7178 17.6313 19.8149 17.6313 19.9131C17.6313 20.0113 17.652 20.1085 17.692 20.1982C17.732 20.2879 17.7905 20.3682 17.8635 20.4338C17.9366 20.4995 18.0227 20.549 18.1161 20.5792C18.2096 20.6094 18.3084 20.6196 18.4061 20.6091H28.8061C28.9037 20.6196 29.0025 20.6094 29.096 20.5792C29.1895 20.549 29.2755 20.4995 29.3486 20.4338C29.4217 20.3682 29.4801 20.2879 29.5201 20.1982C29.5601 20.1085 29.5808 20.0113 29.5808 19.9131C29.5808 19.8149 29.5601 19.7178 29.5201 19.6281C29.4801 19.5383 29.4217 19.458 29.3486 19.3924C29.2755 19.3267 29.1895 19.2772 29.096 19.247C29.0025 19.2168 28.9037 19.2066 28.8061 19.2171Z" fill="#225289"/>
<path d="M11.0909 16.2603H2.18289C2.01116 16.2787 1.85232 16.36 1.73689 16.4885C1.62147 16.6169 1.55762 16.7836 1.55762 16.9563C1.55762 17.129 1.62147 17.2956 1.73689 17.4241C1.85232 17.5526 2.01116 17.6338 2.18289 17.6523H11.0929C11.2646 17.6338 11.4235 17.5526 11.5389 17.4241C11.6543 17.2956 11.7182 17.129 11.7182 16.9563C11.7182 16.7836 11.6543 16.6169 11.5389 16.4885C11.4235 16.36 11.2646 16.2787 11.0929 16.2603H11.0909Z" fill="#225289"/>
<path d="M24.1309 6.84514C23.9999 6.71567 23.8231 6.64307 23.6389 6.64307C23.4547 6.64307 23.2779 6.71567 23.1469 6.84514L16.9569 13.0351L13.7369 9.81514C13.6754 9.73837 13.5983 9.67544 13.5108 9.63045C13.4233 9.58545 13.3273 9.55939 13.2291 9.554C13.1309 9.54861 13.0326 9.56399 12.9407 9.59914C12.8488 9.63428 12.7653 9.68841 12.6957 9.75798C12.6262 9.82755 12.572 9.91102 12.5369 10.0029C12.5018 10.0948 12.4864 10.1931 12.4918 10.2913C12.4972 10.3896 12.5232 10.4856 12.5682 10.5731C12.6132 10.6606 12.6761 10.7376 12.7529 10.7991L16.4659 14.5121C16.5969 14.6416 16.7737 14.7142 16.9579 14.7142C17.1421 14.7142 17.3189 14.6416 17.4499 14.5121L24.1329 7.82915C24.2621 7.69786 24.3343 7.52093 24.334 7.33673C24.3336 7.15253 24.2606 6.9759 24.1309 6.84514Z" fill="#225289"/>
</svg>
