<svg width="26" height="30" viewBox="0 0 26 30" fill="none" xmlns="http://www.w3.org/2000/svg">
<g clip-path="url(#clip0_10029_23356)">
<path d="M25.5521 7.92C25.3621 7.58 25.0821 7.31 24.7221 7.1L14.2221 1.06C13.8621 0.85 13.4921 0.75 13.1021 0.75C12.7121 0.75 12.3321 0.85 11.9721 1.06L1.47205 7.1C1.11205 7.31 0.842051 7.58 0.642051 7.92C0.442051 8.25 0.352051 8.62 0.352051 9.04V20.96C0.352051 21.38 0.442051 21.75 0.642051 22.08C0.842051 22.42 1.11205 22.69 1.47205 22.9L11.9721 28.94C12.7021 29.36 13.4921 29.36 14.2221 28.94L24.7221 22.9C25.0821 22.69 25.3621 22.42 25.5521 22.08C25.7521 21.75 25.8521 21.38 25.8521 20.96V9.04C25.8521 8.62 25.7521 8.25 25.5521 7.92ZM13.1021 2.13L23.4921 8.14L19.1021 10.65L8.66205 4.69L13.1021 2.13ZM12.3521 27.44L1.85205 21.36V9.35L12.3521 15.43V27.44ZM2.71205 8.14L7.13205 5.58L17.5221 11.59L13.1021 14.14L2.71205 8.14ZM24.3521 21.36L13.8521 27.44V15.43L24.3521 9.35V21.36Z" fill="#FF6712"/>
</g>
<defs>
<clipPath id="clip0_10029_23356">
<rect width="25.5" height="28.5" fill="white" transform="translate(0.352051 0.75)"/>
</clipPath>
</defs>
</svg>
