<svg width="29" height="28" viewBox="0 0 29 28" fill="none" xmlns="http://www.w3.org/2000/svg">
<path d="M20.8167 21.5713C21.1763 21.7197 21.5525 21.8215 21.9362 21.8747L17.4096 26.4021C16.705 27.1051 15.7503 27.5 14.755 27.5C13.7598 27.5 12.8052 27.1052 12.1006 26.4023C12.1006 26.4022 12.1005 26.4021 12.1004 26.4021L7.61753 21.9192C8.09647 21.8815 8.5673 21.7687 9.01261 21.5844L8.82136 21.1224L9.01261 21.5844C9.57262 21.3526 10.0812 21.0121 10.5089 20.5826C10.509 20.5825 10.5091 20.5824 10.5092 20.5823L14.7182 16.3733C14.7734 16.322 14.8459 16.2935 14.9213 16.2935C14.9967 16.2935 15.0693 16.322 15.1244 16.3732L19.3196 20.5711C19.7477 21.0001 20.2565 21.3401 20.8167 21.5713ZM7.24691 21.5486V21.4333V21.5486Z" stroke="#FF6712"/>
<path d="M7.2478 6.4479V6.06443H7.2472C7.24696 6.06443 7.24671 6.06443 7.24647 6.06443L7.24749 6.44821L7.2478 6.4479ZM7.2478 6.4479V6.56443M17.4003 1.59967L17.4003 1.59974L21.9255 6.12486C21.545 6.17881 21.172 6.28053 20.8154 6.42827C20.2553 6.6603 19.7468 7.00121 19.3195 7.43122C19.3193 7.43142 19.3191 7.43162 19.3189 7.43182L15.121 11.6297C15.1209 11.6298 15.1208 11.6299 15.1208 11.6299C15.068 11.6824 14.9966 11.7119 14.9222 11.7119C14.8478 11.7119 14.7764 11.6824 14.7237 11.6299C14.7236 11.6299 14.7235 11.6298 14.7234 11.6297L10.5101 7.41549C10.51 7.41535 10.5098 7.41521 10.5097 7.41507C10.082 6.98559 9.57353 6.6451 9.01353 6.41328C8.56776 6.22874 8.09642 6.11598 7.61697 6.07842L12.092 1.59967C12.4405 1.25104 12.8543 0.974484 13.3097 0.7858C13.7651 0.597116 14.2532 0.5 14.7461 0.5C15.2391 0.5 15.7272 0.597116 16.1826 0.7858C16.638 0.974484 17.0518 1.25104 17.4003 1.59967ZM22.5816 6.07951V6.57951L11.7384 1.24618C12.1333 0.851103 12.6022 0.537701 13.1183 0.323878C13.6344 0.110055 14.1875 0 14.7461 0C15.3048 0 15.8579 0.110055 16.374 0.323878C16.8901 0.537701 17.359 0.851103 17.7539 1.24618L22.5872 6.07951H22.5824H22.5816Z" stroke="#FF6712"/>
<mask id="path-3-inside-1_4016_13857" fill="white">
<path d="M27.4989 10.992L24.2761 7.76908C24.2034 7.79879 24.1257 7.81444 24.0472 7.81521H22.5817C21.8191 7.81711 21.088 8.11998 20.5475 8.65796L16.3479 12.8549C15.9697 13.2324 15.4572 13.4445 14.9228 13.4445C14.3884 13.4445 13.8758 13.2324 13.4976 12.8549L9.28206 8.642C8.74169 8.10369 8.01064 7.8005 7.24791 7.79835H5.44884C5.3747 7.79668 5.30143 7.78197 5.23238 7.75488L1.9891 10.992C1.1925 11.7903 0.745117 12.872 0.745117 13.9997C0.745117 15.1275 1.1925 16.2092 1.9891 17.0075L5.22529 20.2437C5.29418 20.2161 5.36754 20.2014 5.44174 20.2002H7.24791C8.01062 20.198 8.74163 19.8948 9.28206 19.3566L13.4967 15.1419C14.2588 14.3807 15.5868 14.3807 16.3479 15.1419L20.5475 19.3406C21.088 19.8786 21.8191 20.1814 22.5817 20.1833H24.0472C24.1257 20.1839 24.2034 20.1996 24.2761 20.2295L27.4989 17.0066C27.894 16.6117 28.2074 16.1428 28.4212 15.6267C28.6351 15.1106 28.7451 14.5575 28.7451 13.9988C28.7451 13.4402 28.6351 12.8871 28.4212 12.371C28.2074 11.8549 27.894 11.386 27.4989 10.9911"/>
</mask>
<path d="M24.2761 7.76908L24.9832 7.06197L24.5131 6.59189L23.8977 6.84341L24.2761 7.76908ZM24.0472 7.81521V8.81525L24.0569 8.81516L24.0472 7.81521ZM22.5817 7.81521V6.8152L22.5792 6.81521L22.5817 7.81521ZM20.5475 8.65796L19.8421 7.9492L19.8406 7.95063L20.5475 8.65796ZM16.3479 12.8549L17.0544 13.5626L17.0548 13.5622L16.3479 12.8549ZM13.4976 12.8549L12.7907 13.5622L12.7912 13.5626L13.4976 12.8549ZM9.28206 8.642L9.98894 7.93467L9.98781 7.93354L9.28206 8.642ZM7.24791 7.79835L7.25072 6.79835H7.24791V7.79835ZM5.44884 7.79835L5.42633 8.7981L5.43758 8.79835H5.44884V7.79835ZM5.23238 7.75488L5.59759 6.82396L4.98881 6.58513L4.52596 7.0471L5.23238 7.75488ZM1.9891 10.992L1.28267 10.2842L1.28124 10.2856L1.9891 10.992ZM0.745117 13.9997H-0.254883H0.745117ZM1.9891 17.0075L1.28124 17.7138L1.28199 17.7146L1.9891 17.0075ZM5.22529 20.2437L4.51818 20.9508L4.98462 21.4172L5.597 21.172L5.22529 20.2437ZM5.44174 20.2002V19.2002H5.43399L5.42623 19.2003L5.44174 20.2002ZM7.24791 20.2002V21.2002L7.25084 21.2002L7.24791 20.2002ZM9.28206 19.3566L9.98772 20.0651L9.98916 20.0637L9.28206 19.3566ZM13.4967 15.1419L12.79 14.4344L12.7896 14.4348L13.4967 15.1419ZM16.3479 15.1419L15.6408 15.849L15.6409 15.8491L16.3479 15.1419ZM20.5475 19.3406L19.8405 20.0478L19.8421 20.0494L20.5475 19.3406ZM22.5817 20.1833L22.5792 21.1833H22.5817V20.1833ZM24.0472 20.1833L24.0542 19.1833H24.0472V20.1833ZM24.2761 20.2295L23.8951 21.1541L24.5117 21.4081L24.9832 20.9366L24.2761 20.2295ZM27.4989 17.0066L26.792 16.2994L26.7918 16.2995L27.4989 17.0066ZM28.206 10.2849L24.9832 7.06197L23.5689 8.47618L26.7918 11.6991L28.206 10.2849ZM23.8977 6.84341C23.9421 6.82528 23.9895 6.81572 24.0374 6.81525L24.0569 8.81516C24.2619 8.81316 24.4646 8.7723 24.6544 8.69474L23.8977 6.84341ZM24.0472 6.81521H22.5817V8.81521H24.0472V6.81521ZM22.5792 6.81521C21.553 6.81778 20.5694 7.22531 19.8421 7.9492L21.253 9.36673C21.6067 9.01466 22.0851 8.81645 22.5842 8.8152L22.5792 6.81521ZM19.8406 7.95063L15.641 12.1476L17.0548 13.5622L21.2544 9.3653L19.8406 7.95063ZM15.6415 12.1471C15.4507 12.3375 15.1923 12.4445 14.9228 12.4445V14.4445C15.7221 14.4445 16.4887 14.1273 17.0544 13.5626L15.6415 12.1471ZM14.9228 12.4445C14.6533 12.4445 14.3948 12.3375 14.2041 12.1471L12.7912 13.5626C13.3569 14.1273 14.1235 14.4445 14.9228 14.4445V12.4445ZM14.2045 12.1476L9.98894 7.93467L8.57517 9.34933L12.7907 13.5622L14.2045 12.1476ZM9.98781 7.93354C9.26071 7.20921 8.27703 6.80124 7.25072 6.79836L7.2451 8.79835C7.74425 8.79975 8.22267 8.99817 8.5763 9.35045L9.98781 7.93354ZM7.24791 6.79835H5.44884V8.79835H7.24791V6.79835ZM5.47135 6.7986C5.51459 6.79958 5.55732 6.80816 5.59759 6.82396L4.86718 8.68581C5.04553 8.75578 5.2348 8.79379 5.42633 8.7981L5.47135 6.7986ZM4.52596 7.0471L1.28267 10.2842L2.69553 11.6997L5.93881 8.46267L4.52596 7.0471ZM1.28124 10.2856C0.297564 11.2714 -0.254883 12.6071 -0.254883 13.9997H1.74512C1.74512 13.1368 2.08743 12.3091 2.69696 11.6983L1.28124 10.2856ZM-0.254883 13.9997C-0.254883 15.3923 0.297564 16.7281 1.28124 17.7138L2.69696 16.3011C2.08743 15.6903 1.74512 14.8626 1.74512 13.9997H-0.254883ZM1.28199 17.7146L4.51818 20.9508L5.93239 19.5366L2.6962 16.3004L1.28199 17.7146ZM5.597 21.172C5.55252 21.1898 5.50515 21.1993 5.45725 21.2001L5.42623 19.2003C5.22993 19.2034 5.03584 19.2423 4.85357 19.3153L5.597 21.172ZM5.44174 21.2002H7.24791V19.2002H5.44174V21.2002ZM7.25084 21.2002C8.27705 21.1972 9.2606 20.7893 9.98772 20.0651L8.57639 18.648C8.22267 19.0003 7.74419 19.1987 7.24497 19.2002L7.25084 21.2002ZM9.98916 20.0637L14.2038 15.849L12.7896 14.4348L8.57495 18.6494L9.98916 20.0637ZM14.2034 15.8494C14.5753 15.478 15.2704 15.4786 15.6408 15.849L17.055 14.4348C15.9031 13.2829 13.9423 13.2835 12.79 14.4344L14.2034 15.8494ZM15.6409 15.8491L19.8405 20.0478L21.2545 18.6334L17.0549 14.4347L15.6409 15.8491ZM19.8421 20.0494C20.5694 20.7732 21.553 21.1808 22.5792 21.1833L22.5842 19.1833C22.0851 19.1821 21.6067 18.9839 21.253 18.6318L19.8421 20.0494ZM22.5817 21.1833H24.0472V19.1833H22.5817V21.1833ZM24.0402 21.1833C23.9904 21.183 23.9412 21.173 23.8951 21.1541L24.657 19.3049C24.4657 19.2261 24.261 19.1848 24.0542 19.1834L24.0402 21.1833ZM24.9832 20.9366L28.206 17.7137L26.7918 16.2995L23.5689 19.5224L24.9832 20.9366ZM28.2059 17.7138C28.6939 17.226 29.081 16.6469 29.3451 16.0095L27.4974 15.2439C27.3339 15.6386 27.0941 15.9973 26.792 16.2994L28.2059 17.7138ZM29.3451 16.0095C29.6092 15.372 29.7451 14.6888 29.7451 13.9988H27.7451C27.7451 14.4261 27.6609 14.8492 27.4974 15.2439L29.3451 16.0095ZM29.7451 13.9988C29.7451 13.3089 29.6092 12.6256 29.3451 11.9882L27.4974 12.7538C27.6609 13.1485 27.7451 13.5716 27.7451 13.9988H29.7451ZM29.3451 11.9882C29.081 11.3508 28.6939 10.7716 28.2059 10.2838L26.792 11.6983C27.0941 12.0004 27.3339 12.359 27.4974 12.7538L29.3451 11.9882Z" fill="#FF6712" mask="url(#path-3-inside-1_4016_13857)"/>
</svg>
