<svg xmlns="http://www.w3.org/2000/svg" width="13" height="12" viewBox="0 0 13 12" fill="none">
<path d="M1.23566 2.67631H12.3777C12.4913 2.67631 12.6002 2.63125 12.6807 2.55102C12.7611 2.47078 12.8064 2.36192 12.8067 2.24831V1.17631C12.8067 1.06254 12.7615 0.953419 12.681 0.872966C12.6006 0.792513 12.4914 0.747314 12.3777 0.747314H1.23566C1.12188 0.747314 1.01276 0.792513 0.93231 0.872966C0.851857 0.953419 0.806659 1.06254 0.806659 1.17631V2.24831C0.806924 2.36192 0.852239 2.47078 0.932663 2.55102C1.01309 2.63125 1.12205 2.67631 1.23566 2.67631ZM1.23566 6.96231H12.3777C12.4343 6.96232 12.4904 6.95109 12.5428 6.92928C12.5951 6.90747 12.6425 6.87551 12.6824 6.83525C12.7223 6.79499 12.7538 6.74723 12.7752 6.69471C12.7965 6.6422 12.8072 6.58599 12.8067 6.52931V5.46231C12.8067 5.34854 12.7615 5.23942 12.681 5.15897C12.6006 5.07851 12.4914 5.03331 12.3777 5.03331H1.23566C1.12188 5.03331 1.01276 5.07851 0.93231 5.15897C0.851857 5.23942 0.806659 5.34854 0.806659 5.46231V6.52931C0.806131 6.58599 0.816837 6.6422 0.83816 6.69471C0.859482 6.74723 0.890998 6.79499 0.930887 6.83525C0.970776 6.87551 1.01825 6.90747 1.07056 6.92928C1.12287 6.95109 1.17898 6.96232 1.23566 6.96231ZM1.23566 11.2483H12.3777C12.4914 11.2483 12.6006 11.2031 12.681 11.1227C12.7615 11.0422 12.8067 10.9331 12.8067 10.8193V9.74831C12.8067 9.63454 12.7615 9.52542 12.681 9.44497C12.6006 9.36451 12.4914 9.31931 12.3777 9.31931H1.23566C1.12188 9.31931 1.01276 9.36451 0.93231 9.44497C0.851857 9.52542 0.806659 9.63454 0.806659 9.74831V10.8193C0.806659 10.9331 0.851857 11.0422 0.93231 11.1227C1.01276 11.2031 1.12188 11.2483 1.23566 11.2483Z" fill="#FF6712"/>
</svg>