<svg id="Grupo_19" data-name="Grupo 19" xmlns="http://www.w3.org/2000/svg" width="33" height="28" viewBox="0 0 33 28">
  <path id="Caminho_1" data-name="Caminho 1" d="M26.575,51.645v-12.1A3.048,3.048,0,0,0,23.532,36.5H3.042A3.048,3.048,0,0,0,0,39.542v12.1a3.048,3.048,0,0,0,3.042,3.042h.868v3.648a1.219,1.219,0,0,0,1.225,1.218h0a1.229,1.229,0,0,0,.922-.424L9.9,54.681H23.539A3.036,3.036,0,0,0,26.575,51.645ZM9.518,53.038a.828.828,0,0,0-.626.283L5.553,57.178V53.86a.827.827,0,0,0-.828-.828H3.042a1.4,1.4,0,0,1-1.393-1.393v-12.1a1.4,1.4,0,0,1,1.393-1.393h20.49a1.4,1.4,0,0,1,1.393,1.393v12.1a1.4,1.4,0,0,1-1.393,1.393Z" transform="translate(0 -36.5)"/>
  <path id="Caminho_2" data-name="Caminho 2" d="M168.486,133.137a1.2,1.2,0,0,0,.915.424,1.22,1.22,0,0,0,.431-.081,1.207,1.207,0,0,0,.794-1.144v-3.648h.868a3.048,3.048,0,0,0,3.042-3.042v-12.1A3.048,3.048,0,0,0,171.5,110.5a.825.825,0,1,0,0,1.649,1.4,1.4,0,0,1,1.393,1.393v12.1a1.4,1.4,0,0,1-1.393,1.393h-1.69a.827.827,0,0,0-.828.828v3.318l-3.339-3.857a.818.818,0,0,0-.626-.283H152.628a.828.828,0,0,0,0,1.656h12.008Z" transform="translate(-141.538 -105.561)"/>
  <circle id="Elipse_5" data-name="Elipse 5" cx="0.983" cy="0.983" r="0.983" transform="translate(12.322 8.387)"/>
  <circle id="Elipse_6" data-name="Elipse 6" cx="0.983" cy="0.983" r="0.983" transform="translate(15.618 8.387)"/>
  <circle id="Elipse_7" data-name="Elipse 7" cx="0.983" cy="0.983" r="0.983" transform="translate(9.026 8.387)"/>
</svg>
