<svg width="101" height="76" viewBox="0 0 101 76" fill="none" xmlns="http://www.w3.org/2000/svg">
<mask id="mask0_12074_4703" style="mask-type:luminance" maskUnits="userSpaceOnUse" x="0" y="4" width="83" height="72">
<path d="M83 4.2002H0V75.2002H83V4.2002Z" fill="white"/>
</mask>
<g mask="url(#mask0_12074_4703)">
<g style="mix-blend-mode:color">
<path d="M76.0441 33.9391C75.3641 33.3771 59.8681 20.9191 56.4611 18.2071C53.2611 15.6491 47.7891 10.1191 41.5001 10.1191C35.2441 10.1191 29.8251 15.5801 26.5341 18.2071C22.9961 21.0191 7.56108 33.4381 6.97008 33.9191C6.17653 34.5716 5.5375 35.3919 5.09899 36.321C4.66048 37.2501 4.4334 38.2648 4.43408 39.2921V77.3011C4.43408 79.1444 5.16631 80.9122 6.46969 82.2155C7.77307 83.5189 9.54083 84.2511 11.3841 84.2511H71.6161C73.4593 84.2511 75.2271 83.5189 76.5305 82.2155C77.8338 80.9122 78.5661 79.1444 78.5661 77.3011V39.2951C78.566 38.2718 78.3398 37.261 77.9039 36.3352C77.4679 35.4093 76.8329 34.5912 76.0441 33.9391ZM71.6161 76.4321C71.6161 76.6626 71.5245 76.8836 71.3616 77.0466C71.1986 77.2096 70.9776 77.3011 70.7471 77.3011H12.2531C12.0226 77.3011 11.8016 77.2096 11.6386 77.0466C11.4756 76.8836 11.3841 76.6626 11.3841 76.4321V39.7061C11.384 39.5767 11.4129 39.449 11.4687 39.3322C11.5244 39.2154 11.6055 39.1125 11.7061 39.0311C14.0061 37.1761 27.4581 26.3541 30.8711 23.6411C33.5011 21.5411 38.0831 17.0691 41.5001 17.0691C44.9171 17.0691 49.5871 21.6111 52.1291 23.6411C55.5421 26.3541 68.9971 37.1781 71.2941 39.0341C71.3947 39.1155 71.4759 39.2183 71.5316 39.3351C71.5873 39.4519 71.6162 39.5797 71.6161 39.7091V76.4321ZM66.9841 49.2551C67.1303 49.4326 67.2399 49.6373 67.3063 49.8575C67.3728 50.0776 67.395 50.3088 67.3714 50.5375C67.3479 50.7663 67.2792 50.9881 67.1692 51.19C67.0593 51.392 66.9104 51.5702 66.7311 51.7141C62.5311 55.0851 58.1491 58.6051 56.4611 59.9471C53.1741 62.5741 47.7551 68.0351 41.4991 68.0351C35.2081 68.0351 29.7301 62.4991 26.5371 59.9471C24.9041 58.6471 20.4931 55.1091 16.2681 51.7141C16.0888 51.5702 15.9398 51.392 15.8299 51.19C15.72 50.9881 15.6513 50.7663 15.6277 50.5375C15.6042 50.3088 15.6263 50.0776 15.6928 49.8575C15.7593 49.6373 15.8689 49.4326 16.0151 49.2551L18.2241 46.5721C18.5146 46.2192 18.9325 45.9951 19.3872 45.9483C19.8419 45.9015 20.2968 46.0358 20.6531 46.3221C24.7971 49.6521 29.1331 53.1321 30.8691 54.5131C33.4101 56.5431 38.0691 61.0851 41.4981 61.0851C44.9271 61.0851 49.4981 56.6141 52.1271 54.5131C53.8641 53.1321 58.2001 49.6521 62.3441 46.3231C62.7004 46.0368 63.1552 45.9025 63.6099 45.9493C64.0646 45.9961 64.4825 46.2202 64.7731 46.5731L66.9821 49.2551H66.9841Z" fill="#fff;"/>
</g>
</g>
<g filter="url(#filter0_d_12074_4703)">
<path d="M91.2095 11.3636L34.9395 29.5238C34.4612 29.6664 34.0328 29.9409 33.7035 30.316C33.3741 30.691 33.1572 31.1513 33.0776 31.644C32.9981 32.1367 33.0591 32.6419 33.2536 33.1015C33.4481 33.5612 33.7683 33.9567 34.1774 34.2425L44.6305 41.5224L81.5331 20.8173C81.6783 20.7361 81.8486 20.7125 82.0104 20.7511C82.1721 20.7897 82.3134 20.8878 82.4062 21.0258C82.499 21.1638 82.5365 21.3316 82.5113 21.496C82.4861 21.6604 82.3999 21.8092 82.27 21.913L49.4468 48.0475L47.5831 56.745C47.4549 57.2814 47.4973 57.8444 47.7043 58.3556C47.9113 58.8668 48.2726 59.3008 48.7378 59.597C49.203 59.8931 49.7491 60.0369 50.2998 60.0081C50.8506 59.9793 51.3787 59.7795 51.8105 59.4364L60.4601 52.5548L72.7138 61.0795C73.0428 61.3077 73.419 61.4587 73.8144 61.5212C74.2098 61.5837 74.6143 61.5561 74.9976 61.4404C75.3808 61.3248 75.733 61.1241 76.0279 60.8533C76.3228 60.5825 76.5527 60.2487 76.7005 59.8766L94.4817 14.8682C94.667 14.4013 94.7159 13.8913 94.6227 13.3977C94.5295 12.904 94.298 12.447 93.9552 12.0799C93.6124 11.7127 93.1723 11.4504 92.6862 11.3236C92.2001 11.1968 91.688 11.2107 91.2095 11.3636Z" fill="#fff"/>
</g>
<defs>
<filter id="filter0_d_12074_4703" x="27.0437" y="8.23773" width="73.625" height="62.316" filterUnits="userSpaceOnUse" color-interpolation-filters="sRGB">
<feFlood flood-opacity="0" result="BackgroundImageFix"/>
<feColorMatrix in="SourceAlpha" type="matrix" values="0 0 0 0 0 0 0 0 0 0 0 0 0 0 0 0 0 0 127 0" result="hardAlpha"/>
<feOffset dy="3"/>
<feGaussianBlur stdDeviation="3"/>
<feColorMatrix type="matrix" values="0 0 0 0 0 0 0 0 0 0 0 0 0 0 0 0 0 0 0.161 0"/>
<feBlend mode="normal" in2="BackgroundImageFix" result="effect1_dropShadow_12074_4703"/>
<feBlend mode="normal" in="SourceGraphic" in2="effect1_dropShadow_12074_4703" result="shape"/>
</filter>
</defs>
</svg>
