<svg xmlns="http://www.w3.org/2000/svg" width="29" height="28" viewBox="0 0 29 28" fill="none">
<g clip-path="url(#clip0_6_12)">
<path d="M6.87672 6.93558H6.47632L11.2097 2.20218C12.7518 0.66568 15.248 0.66568 16.7908 2.20218L21.5242 6.93558H21.1238C20.1816 6.93558 19.2926 7.30028 18.6276 7.97158L14.6243 11.9574C14.2771 12.3046 13.7234 12.3046 13.3762 11.9574L9.37292 7.97158C8.70722 7.30028 7.81822 6.93558 6.87672 6.93558Z" stroke="#225289" stroke-width="0.7" stroke-miterlimit="10"/>
<path d="M21.1231 21.0644H21.5235L16.7901 25.7978C15.248 27.3343 12.7518 27.3343 11.209 25.7978L6.47559 21.0644H6.87599C7.81819 21.0644 8.70719 20.6997 9.37219 20.0284L13.3755 16.0426C13.7227 15.6954 14.2764 15.6954 14.6236 16.0426L18.6269 20.0284C19.2926 20.6997 20.1816 21.0644 21.1231 21.0644Z" stroke="#225289" stroke-width="0.7" stroke-miterlimit="10"/>
<path d="M25.7978 16.79L22.701 19.8868H21.1232C20.4932 19.8868 19.9045 19.6397 19.4572 19.198L15.4539 15.2066C14.6531 14.4058 13.3462 14.4058 12.5454 15.2066L8.54208 19.198C8.09478 19.6397 7.50608 19.8868 6.87608 19.8868H5.29898L2.20218 16.79C0.66568 15.2479 0.66568 12.7517 2.20218 11.2089L5.29898 8.11279H6.87678C7.50678 8.11279 8.09548 8.35989 8.54278 8.80159L12.5461 12.793C12.9465 13.1934 13.4764 13.3936 14 13.3936C14.5236 13.3936 15.0535 13.1934 15.4539 12.793L19.4572 8.80159C19.9045 8.35989 20.4932 8.11279 21.1232 8.11279H22.701L25.7978 11.2096C27.3343 12.7517 27.3343 15.2479 25.7978 16.79Z" stroke="#225289" stroke-width="0.7" stroke-miterlimit="10"/>
</g>
<defs>
<clipPath id="clip0_6_12">
<rect width="29" height="28" fill="white"/>
</clipPath>
</defs>
</svg>